<?xml version="1.0" encoding="UTF-8" standalone="no"?>
<!DOCTYPE svg PUBLIC "-//W3C//DTD SVG 1.1//EN" "http://www.w3.org/Graphics/SVG/1.1/DTD/svg11.dtd">
<svg width="100%" height="100%" viewBox="0 0 1240 391" version="1.1" xmlns="http://www.w3.org/2000/svg" xmlns:xlink="http://www.w3.org/1999/xlink" xml:space="preserve" xmlns:serif="http://www.serif.com/" style="fill-rule:evenodd;clip-rule:evenodd;stroke-linejoin:round;stroke-miterlimit:2;">
    <g transform="matrix(1.21547,0,0,1,-494.619,-354)">
        <g transform="matrix(1,0,0,1,25.5045,21)">
            <path d="M387.592,677.968C390.677,694.071 406.953,710.683 426.269,715.826C433.154,717.59 439.24,717.459 446.691,715.35C451.659,713.944 458.187,711.565 463.694,708.415C485.624,695.311 515.687,667.704 528.323,640.255C537.119,622.381 538.491,604.486 535.791,590.397C532.031,570.772 519.01,557.482 504.855,551.94C528.68,528.22 546.822,497.621 553.894,477.583C561.158,458.551 564.657,435.81 561.283,418.198C550.196,360.33 521.375,348.86 492.973,360.082C461.77,372.628 429.966,407.094 405.098,416.255C396.914,419.102 395.712,424.217 399.546,430.558C404.4,437.672 414.387,446.516 429.359,444.93C410.696,506.976 393.626,588.729 388.017,646.018C386.508,658.647 386.435,671.93 387.592,677.968ZM460.642,480.637C466.239,455.18 466.341,439.767 463.806,428.814C488.595,410.127 504.123,397.774 515.301,394.61C522.339,392.618 530.63,397.167 532.655,407.734C539.528,441.332 506.789,507.362 443.135,548.721C454.631,506.211 458.113,492.493 460.642,480.637ZM500.335,612.634C488.278,643.102 457.773,672.957 434.436,683.276C426.031,687.246 421.755,683.152 422.782,668.008C424.335,644.226 429.354,615.75 434.98,588.164C444.252,588.722 459.792,583.263 474.752,574.784C493.768,571.523 502.762,577.465 504.498,586.523C505.847,593.568 504.174,603.06 500.335,612.634Z" style="fill-rule:nonzero;"/>
        </g>
        <path d="M603.312,482.129C593.393,485.031 578.385,518.633 582.313,538.467C583.314,543.522 586.555,547.923 591.241,551.077C578.881,582.671 568.879,619.334 565.904,633.37C563.427,644.792 563.036,654.78 564.73,663.336C566.425,671.891 570.602,679.309 577.273,683.94C584.496,689.644 587.962,684.927 587.855,677.553C587.02,649.409 598.172,608.295 612.156,550.718C619.118,548.27 626.809,544.374 634.281,537.662C622.981,566.065 611.954,600.971 616.883,625.86C621.042,646.86 634.912,660.493 654.429,654.783C672.666,649.447 688.232,627.202 691.521,602.788C692.961,591.259 690.792,582.019 687.474,577.23C683.209,571.072 678.806,572.772 677.633,580.52C673.029,610.256 664.543,635.778 653.665,638.961C649.186,640.272 645.394,634.798 643.391,624.687C638.847,601.742 651,565.684 663.503,536.518C666.021,530.433 666.543,524.52 665.618,519.853C663.77,510.52 656.968,501.813 651.411,497.679C646.25,493.84 643.205,495.554 638.69,501.812C630.785,513.176 623.225,521.148 616.008,525.728C617.063,512.254 617.069,500.321 615.606,492.932C613.835,483.987 610.031,480.163 603.312,482.129Z" style="fill-rule:nonzero;"/>
        <path d="M744.243,481.203C748.436,483.723 745.176,503.929 738.759,521.736C734.341,534.057 726.296,548.625 718.6,550.781C716.355,551.41 713.962,551.259 711.027,550.029C719.324,508.298 738.546,477.873 744.243,481.203ZM771.251,490.056C770.29,484.989 767.899,479.502 765.309,476.533C759.341,469.995 751.745,465.555 741.583,461.834C737.933,460.394 734.258,460.603 729.768,461.86C711.169,467.071 689.111,495.007 680.27,540.995C676.493,558.473 676.168,574.573 678.829,588.605C684.743,619.787 705.606,638.982 735.356,630.237C760.295,622.84 782.476,597.333 791.436,569.783C795.212,557.641 792.748,546.428 791.121,543.189C787.077,536.112 783.056,538.06 780.711,545.285C772.146,573.134 756.13,607.998 731.758,614.825C722.137,617.521 714.074,607.055 710.821,589.904C709.491,582.888 708.901,574.433 709.347,566.099C717.831,569.879 726.045,570.451 733.741,568.295C761.961,560.389 775.686,513.443 771.251,490.056Z" style="fill-rule:nonzero;"/>
        <path d="M791.331,526.963C784.416,545.701 782.667,565.193 785.037,579.234C788.289,598.499 799.255,610.396 815.106,606.443C825.851,603.763 836.232,590.626 842.479,579.54C846.668,591.086 855.892,597.633 869.324,594.283C885.711,590.197 899.983,568.603 903.937,548.902C906.099,538.494 902.999,530.08 901.429,527.409C897.585,521.222 895.222,522.151 893.369,529.419C888.087,552.854 878.402,578.408 868.731,580.82C866.045,581.49 864.474,578.819 863.647,573.921C859.954,552.044 876.513,510.824 880.466,491.123C884.585,472.401 879.741,458.637 874.072,453.245C870.077,449.478 865.565,450.943 863.443,458.278L860.048,469.673C856.197,461.786 849.295,457.383 839.623,459.795C825.922,463.211 806.484,484.052 791.331,526.963ZM816.173,591.205C813.486,591.875 811.75,588.224 810.758,582.347C808.994,571.898 810.64,553.453 816.109,536.096C825.29,505.904 840.354,480.709 845.727,479.37C848.414,478.7 849.337,480.851 849.998,484.77C851.431,493.259 849.296,510.465 842.567,535.282C834.034,565.994 825.038,588.994 816.173,591.205Z" style="fill-rule:nonzero;"/>
        <path d="M954.02,385.76C953.453,381.617 951.952,377.967 950.005,374.711C946.476,369.038 942.581,369.826 939.495,376.532C922.972,416.673 899.337,507.217 893.566,547.312C892.307,556.386 892.467,563.044 893.116,567.779C893.966,573.994 895.994,577.841 898.875,580.604C902.404,584.452 906.097,582.185 907.234,577.697C911.987,553.926 916.089,534.545 920.718,519.011C926.39,560.441 943.348,574.651 961.405,571.303C982.141,567.413 991.641,543.595 994.849,532.302C997.448,523.869 996.922,516.372 995.178,512.771C991.974,505.816 988.89,507.048 986.94,514.741C982.473,533.284 971.918,556.707 963.64,558.382C956.336,559.859 948.264,544.765 944.252,522.767C957.806,513.943 966.654,503.638 973.189,492.888C978.304,484.555 979.726,476.664 978.754,469.562C978.065,464.531 976.443,459.993 973.887,455.948C966.667,443.418 959.445,440.013 949.137,446.964C945.242,449.577 941.386,452.485 937.53,457.219C947.723,422.008 955.6,397.301 954.02,385.76ZM960.618,459.544C963.336,462.948 960.29,473.6 951.888,485.335C944.948,494.951 929.161,507.571 922.505,511.959C927.784,495.685 933.142,483.653 940.367,474.284C950.149,461.661 958.184,456.387 960.618,459.544Z" style="fill-rule:nonzero;"/>
        <path d="M1062.57,483.487C1055.97,484.664 1050.68,486.573 1042.44,488.872C1037.86,490.385 1033.01,491.632 1028.15,492.879C1040.99,461.603 1056.08,430.63 1069.73,405.584C1065.6,428.765 1063.29,458.344 1062.57,483.487ZM1075.97,552.628C1080.6,554.428 1083.69,552.812 1083.2,547.444C1082.38,532.766 1082.25,517.393 1082.38,502.286L1091.13,502.937C1095.62,503.246 1097.24,501.825 1095.58,497.216C1093.3,491.181 1090.34,485.84 1083.39,483.14C1085.24,451.208 1089.33,419.281 1093.04,397.06C1094.12,392.391 1094.23,388.151 1093.91,384.572C1093.59,380.993 1092.56,377.81 1091.01,374.394C1088.84,369.552 1087.07,366.467 1084.27,362.915C1080.05,357.438 1076.35,357.628 1071.43,363.712C1048.05,393.671 1019.36,455.72 1004.46,497.229C1001,497.386 999.009,497.348 995.521,497.207C989.034,496.86 988.213,498.78 990.685,504.186C991.582,505.877 994.165,509.76 998.929,513.051C996.792,519.672 995.53,524.97 994.459,529.638C992.291,538.677 991.926,545.667 992.354,550.439C992.782,555.21 994.495,557.699 996.289,561.083C998.381,565.03 1002.66,565.67 1005.04,559.017C1009.59,546.041 1013.65,530.413 1019.01,515.518C1025.91,514.905 1035.37,512.443 1045.08,509.949L1062.07,505.583C1062.03,513.435 1062.64,520.294 1063.12,525.663C1064.92,542.927 1070.28,550.063 1075.97,552.628Z" style="fill-rule:nonzero;"/>
        <path d="M1159.81,529.535C1159.72,525.336 1161.08,518.994 1163.9,511.709C1172.32,488.354 1182.57,470.046 1186.32,460.032C1191.95,445.162 1191.71,433.165 1184.87,424.664C1182.09,421.446 1178.64,421.847 1175.54,427.041C1171.23,434.07 1166.98,443.498 1162.74,453.826C1158.26,464.161 1153.55,476.004 1142.89,498.525C1132.71,520.132 1124.88,536.267 1118.47,536.456C1116.5,536.515 1116.21,534.423 1116.13,530.824C1116.04,526.325 1116.92,520.598 1118.77,514.241C1123.66,499.992 1129.31,486.022 1137.38,469.579C1142.83,458.315 1145.61,449.23 1145.47,442.032C1145.37,436.934 1142.27,430.123 1140.23,426.882C1137.68,422.756 1133.74,423.473 1130.88,428.359C1117.28,452.467 1104.37,485.857 1098.58,504.634C1096.26,512.205 1095.66,519.424 1095.79,525.722C1096.05,538.919 1101.44,548.963 1113.03,548.62C1123.64,548.307 1133.35,539.918 1140.08,530.717C1142.01,540.563 1148.34,548.779 1158.22,548.787C1175.5,548.877 1192.81,525.26 1208.91,490.875C1223.82,458.625 1227.75,445.305 1229.01,434.165C1229.85,426.938 1228.02,421.891 1223.58,422.022C1219.14,422.153 1199.17,436.246 1195.55,489.768C1183.26,516.839 1170.3,535.827 1163.15,536.038C1160.93,536.104 1159.89,533.734 1159.81,529.535Z" style="fill-rule:nonzero;"/>
        <path d="M1233.01,472.181C1223.19,486.294 1217.69,502.622 1216.86,515.483C1215.73,533.129 1222.77,546.738 1237.29,548.117C1247.13,549.052 1258.8,540.831 1266.48,533.135C1267.74,544.388 1274.37,552.842 1286.67,554.01C1301.68,555.436 1318.45,541.08 1325.91,525.238C1329.91,516.891 1328.95,508.676 1328.14,505.891C1326.08,499.376 1323.85,499.465 1320.76,505.189C1311.39,523.859 1297.78,543.028 1288.92,542.187C1286.46,541.953 1285.65,539.168 1285.94,534.682C1287.22,514.643 1309.99,484.005 1317.44,468.163C1324.84,453.218 1323.47,439.848 1319.67,433.469C1316.99,429.001 1312.79,428.903 1309.45,434.604L1304.18,443.432C1302.47,435.445 1297.4,429.548 1288.54,428.706C1275.99,427.515 1254.91,439.655 1233.01,472.181ZM1241.34,535.261C1238.88,535.027 1238.12,531.344 1238.47,525.961C1239.08,516.39 1244.29,500.936 1252.57,487.58C1266.7,464.246 1284.89,447.016 1289.81,447.484C1292.27,447.717 1292.63,449.858 1292.4,453.447C1291.9,461.223 1286.53,475.458 1275.62,494.884C1261.95,518.863 1249.46,536.032 1241.34,535.261Z" style="fill-rule:nonzero;"/>
        <path d="M1422.3,523.512C1421.87,519.464 1418.14,519.289 1414.22,523.945C1404.55,535.611 1389.75,548.029 1373.36,555.848C1387.33,529.861 1404.06,503.845 1413.46,488.774C1417.68,482.048 1419.82,475.8 1420.66,469.888C1421.54,463.68 1421.2,459.042 1418.18,453.841C1415.97,450.026 1412.73,449.953 1408.56,454.558C1401.21,463.973 1392.08,480.625 1371.03,510.603C1355.62,532.634 1342.2,547.774 1335.87,546.445C1329.55,545.116 1333.42,533.751 1338.34,523.825C1344.94,510.903 1351.77,499.856 1362.31,485.632C1369.46,475.87 1373.6,467.911 1374.65,460.521C1375.33,455.791 1373.89,450.01 1372.05,445.36C1370.05,440.068 1366.36,439.596 1362.48,443.957C1343.83,465.914 1327.66,493.266 1319.42,510.713C1316.18,517.643 1314.19,524.533 1313.31,530.741C1311.54,543.157 1315.3,555.515 1327.46,558.071C1334.75,559.605 1341.45,558.274 1348.58,553.987L1343.46,563.566C1318.23,570.136 1295.96,584.027 1284.8,607.864C1282.59,612.878 1281.14,617.75 1280.64,621.298C1279.29,630.757 1281.68,640.393 1284.44,647.367C1288.93,658.054 1294.04,659.128 1300.01,657.643C1322.56,652.336 1345.83,608.515 1364.76,572.306C1386.13,566.448 1403.74,558.885 1416.03,542.898C1421.26,536.081 1422.84,528.497 1422.3,523.512ZM1334.4,581.452C1326.29,596.188 1318.39,609.445 1311.73,619.309C1302.86,632.363 1296.53,639.862 1295.08,637.73C1293.03,634.558 1296.45,622.796 1304.51,610.181C1311.26,599.726 1321.34,588.753 1334.4,581.452Z" style="fill-rule:nonzero;"/>
    </g>
</svg>
