<?xml version="1.0" encoding="UTF-8" standalone="no"?>
<!DOCTYPE svg PUBLIC "-//W3C//DTD SVG 1.1//EN" "http://www.w3.org/Graphics/SVG/1.1/DTD/svg11.dtd">
<svg width="100%" height="100%" viewBox="0 0 2368 409" version="1.1" xmlns="http://www.w3.org/2000/svg" xmlns:xlink="http://www.w3.org/1999/xlink" xml:space="preserve" xmlns:serif="http://www.serif.com/" style="fill-rule:evenodd;clip-rule:evenodd;stroke-linejoin:round;stroke-miterlimit:2;">
    <g transform="matrix(1.21547,0,0,1,-485.619,-344)">
        <g transform="matrix(1,0,0,1,25.5045,21)">
            <path d="M387.592,677.968C390.677,694.071 406.953,710.683 426.269,715.826C433.154,717.59 439.24,717.459 446.691,715.35C451.659,713.944 458.187,711.565 463.694,708.415C485.624,695.311 515.687,667.704 528.323,640.255C537.119,622.381 538.491,604.486 535.791,590.397C532.031,570.772 519.01,557.482 504.855,551.94C528.68,528.22 546.822,497.621 553.894,477.583C561.158,458.551 564.657,435.81 561.283,418.198C550.196,360.33 521.375,348.86 492.973,360.082C461.77,372.628 429.966,407.094 405.098,416.255C396.914,419.102 395.712,424.217 399.546,430.558C404.4,437.672 414.387,446.516 429.359,444.93C410.696,506.976 393.626,588.729 388.017,646.018C386.508,658.647 386.435,671.93 387.592,677.968ZM460.642,480.637C466.239,455.18 466.341,439.767 463.806,428.814C488.595,410.127 504.123,397.774 515.301,394.61C522.339,392.618 530.63,397.167 532.655,407.734C539.528,441.332 506.789,507.362 443.135,548.721C454.631,506.211 458.113,492.493 460.642,480.637ZM500.335,612.634C488.278,643.102 457.773,672.957 434.436,683.276C426.031,687.246 421.755,683.152 422.782,668.008C424.335,644.226 429.354,615.75 434.98,588.164C444.252,588.722 459.792,583.263 474.752,574.784C493.768,571.523 502.762,577.465 504.498,586.523C505.847,593.568 504.174,603.06 500.335,612.634Z" style="fill:rgb(0,38,63);fill-rule:nonzero;"/>
        </g>
        <path d="M603.312,482.129C593.393,485.031 578.385,518.633 582.313,538.467C583.314,543.522 586.555,547.923 591.241,551.077C578.881,582.671 568.879,619.334 565.904,633.37C563.427,644.792 563.036,654.78 564.73,663.336C566.425,671.891 570.602,679.309 577.273,683.94C584.496,689.644 587.962,684.927 587.855,677.553C587.02,649.409 598.172,608.295 612.156,550.718C619.118,548.27 626.809,544.374 634.281,537.662C622.981,566.065 611.954,600.971 616.883,625.86C621.042,646.86 634.912,660.493 654.429,654.783C672.666,649.447 688.232,627.202 691.521,602.788C692.961,591.259 690.792,582.019 687.474,577.23C683.209,571.072 678.806,572.772 677.633,580.52C673.029,610.256 664.543,635.778 653.665,638.961C649.186,640.272 645.394,634.798 643.391,624.687C638.847,601.742 651,565.684 663.503,536.518C666.021,530.433 666.543,524.52 665.618,519.853C663.77,510.52 656.968,501.813 651.411,497.679C646.25,493.84 643.205,495.554 638.69,501.812C630.785,513.176 623.225,521.148 616.008,525.728C617.063,512.254 617.069,500.321 615.606,492.932C613.835,483.987 610.031,480.163 603.312,482.129Z" style="fill:rgb(0,38,63);fill-rule:nonzero;"/>
        <path d="M744.243,481.203C748.436,483.723 745.176,503.929 738.759,521.736C734.341,534.057 726.296,548.625 718.6,550.781C716.355,551.41 713.962,551.259 711.027,550.029C719.324,508.298 738.546,477.873 744.243,481.203ZM771.251,490.056C770.29,484.989 767.899,479.502 765.309,476.533C759.341,469.995 751.745,465.555 741.583,461.834C737.933,460.394 734.258,460.603 729.768,461.86C711.169,467.071 689.111,495.007 680.27,540.995C676.493,558.473 676.168,574.573 678.829,588.605C684.743,619.787 705.606,638.982 735.356,630.237C760.295,622.84 782.476,597.333 791.436,569.783C795.212,557.641 792.748,546.428 791.121,543.189C787.077,536.112 783.056,538.06 780.711,545.285C772.146,573.134 756.13,607.998 731.758,614.825C722.137,617.521 714.074,607.055 710.821,589.904C709.491,582.888 708.901,574.433 709.347,566.099C717.831,569.879 726.045,570.451 733.741,568.295C761.961,560.389 775.686,513.443 771.251,490.056Z" style="fill:rgb(0,38,63);fill-rule:nonzero;"/>
        <path d="M791.331,526.963C784.416,545.701 782.667,565.193 785.037,579.234C788.289,598.499 799.255,610.396 815.106,606.443C825.851,603.763 836.232,590.626 842.479,579.54C846.668,591.086 855.892,597.633 869.324,594.283C885.711,590.197 899.983,568.603 903.937,548.902C906.099,538.494 902.999,530.08 901.429,527.409C897.585,521.222 895.222,522.151 893.369,529.419C888.087,552.854 878.402,578.408 868.731,580.82C866.045,581.49 864.474,578.819 863.647,573.921C859.954,552.044 876.513,510.824 880.466,491.123C884.585,472.401 879.741,458.637 874.072,453.245C870.077,449.478 865.565,450.943 863.443,458.278L860.048,469.673C856.197,461.786 849.295,457.383 839.623,459.795C825.922,463.211 806.484,484.052 791.331,526.963ZM816.173,591.205C813.486,591.875 811.75,588.224 810.758,582.347C808.994,571.898 810.64,553.453 816.109,536.096C825.29,505.904 840.354,480.709 845.727,479.37C848.414,478.7 849.337,480.851 849.998,484.77C851.431,493.259 849.296,510.465 842.567,535.282C834.034,565.994 825.038,588.994 816.173,591.205Z" style="fill:rgb(0,38,63);fill-rule:nonzero;"/>
        <path d="M954.02,385.76C953.453,381.617 951.952,377.967 950.005,374.711C946.476,369.038 942.581,369.826 939.495,376.532C922.972,416.673 899.337,507.217 893.566,547.312C892.307,556.386 892.467,563.044 893.116,567.779C893.966,573.994 895.994,577.841 898.875,580.604C902.404,584.452 906.097,582.185 907.234,577.697C911.987,553.926 916.089,534.545 920.718,519.011C926.39,560.441 943.348,574.651 961.405,571.303C982.141,567.413 991.641,543.595 994.849,532.302C997.448,523.869 996.922,516.372 995.178,512.771C991.974,505.816 988.89,507.048 986.94,514.741C982.473,533.284 971.918,556.707 963.64,558.382C956.336,559.859 948.264,544.765 944.252,522.767C957.806,513.943 966.654,503.638 973.189,492.888C978.304,484.555 979.726,476.664 978.754,469.562C978.065,464.531 976.443,459.993 973.887,455.948C966.667,443.418 959.445,440.013 949.137,446.964C945.242,449.577 941.386,452.485 937.53,457.219C947.723,422.008 955.6,397.301 954.02,385.76ZM960.618,459.544C963.336,462.948 960.29,473.6 951.888,485.335C944.948,494.951 929.161,507.571 922.505,511.959C927.784,495.685 933.142,483.653 940.367,474.284C950.149,461.661 958.184,456.387 960.618,459.544Z" style="fill:rgb(0,38,63);fill-rule:nonzero;"/>
        <path d="M1062.57,483.487C1055.97,484.664 1050.68,486.573 1042.44,488.872C1037.86,490.385 1033.01,491.632 1028.15,492.879C1040.99,461.603 1056.08,430.63 1069.73,405.584C1065.6,428.765 1063.29,458.344 1062.57,483.487ZM1075.97,552.628C1080.6,554.428 1083.69,552.812 1083.2,547.444C1082.38,532.766 1082.25,517.393 1082.38,502.286L1091.13,502.937C1095.62,503.246 1097.24,501.825 1095.58,497.216C1093.3,491.181 1090.34,485.84 1083.39,483.14C1085.24,451.208 1089.33,419.281 1093.04,397.06C1094.12,392.391 1094.23,388.151 1093.91,384.572C1093.59,380.993 1092.56,377.81 1091.01,374.394C1088.84,369.552 1087.07,366.467 1084.27,362.915C1080.05,357.438 1076.35,357.628 1071.43,363.712C1048.05,393.671 1019.36,455.72 1004.46,497.229C1001,497.386 999.009,497.348 995.521,497.207C989.034,496.86 988.213,498.78 990.685,504.186C991.582,505.877 994.165,509.76 998.929,513.051C996.792,519.672 995.53,524.97 994.459,529.638C992.291,538.677 991.926,545.667 992.354,550.439C992.782,555.21 994.495,557.699 996.289,561.083C998.381,565.03 1002.66,565.67 1005.04,559.017C1009.59,546.041 1013.65,530.413 1019.01,515.518C1025.91,514.905 1035.37,512.443 1045.08,509.949L1062.07,505.583C1062.03,513.435 1062.64,520.294 1063.12,525.663C1064.92,542.927 1070.28,550.063 1075.97,552.628Z" style="fill:rgb(0,38,63);fill-rule:nonzero;"/>
        <path d="M1159.81,529.535C1159.72,525.336 1161.08,518.994 1163.9,511.709C1172.32,488.354 1182.57,470.046 1186.32,460.032C1191.95,445.162 1191.71,433.165 1184.87,424.664C1182.09,421.446 1178.64,421.847 1175.54,427.041C1171.23,434.07 1166.98,443.498 1162.74,453.826C1158.26,464.161 1153.55,476.004 1142.89,498.525C1132.71,520.132 1124.88,536.267 1118.47,536.456C1116.5,536.515 1116.21,534.423 1116.13,530.824C1116.04,526.325 1116.92,520.598 1118.77,514.241C1123.66,499.992 1129.31,486.022 1137.38,469.579C1142.83,458.315 1145.61,449.23 1145.47,442.032C1145.37,436.934 1142.27,430.123 1140.23,426.882C1137.68,422.756 1133.74,423.473 1130.88,428.359C1117.28,452.467 1104.37,485.857 1098.58,504.634C1096.26,512.205 1095.66,519.424 1095.79,525.722C1096.05,538.919 1101.44,548.963 1113.03,548.62C1123.64,548.307 1133.35,539.918 1140.08,530.717C1142.01,540.563 1148.34,548.779 1158.22,548.787C1175.5,548.877 1192.81,525.26 1208.91,490.875C1223.82,458.625 1227.75,445.305 1229.01,434.165C1229.85,426.938 1228.02,421.891 1223.58,422.022C1219.14,422.153 1199.17,436.246 1195.55,489.768C1183.26,516.839 1170.3,535.827 1163.15,536.038C1160.93,536.104 1159.89,533.734 1159.81,529.535Z" style="fill:rgb(0,38,63);fill-rule:nonzero;"/>
        <path d="M1233.01,472.181C1223.19,486.294 1217.69,502.622 1216.86,515.483C1215.73,533.129 1222.77,546.738 1237.29,548.117C1247.13,549.052 1258.8,540.831 1266.48,533.135C1267.74,544.388 1274.37,552.842 1286.67,554.01C1301.68,555.436 1318.45,541.08 1325.91,525.238C1329.91,516.891 1328.95,508.676 1328.14,505.891C1326.08,499.376 1323.85,499.465 1320.76,505.189C1311.39,523.859 1297.78,543.028 1288.92,542.187C1286.46,541.953 1285.65,539.168 1285.94,534.682C1287.22,514.643 1309.99,484.005 1317.44,468.163C1324.84,453.218 1323.47,439.848 1319.67,433.469C1316.99,429.001 1312.79,428.903 1309.45,434.604L1304.18,443.432C1302.47,435.445 1297.4,429.548 1288.54,428.706C1275.99,427.515 1254.91,439.655 1233.01,472.181ZM1241.34,535.261C1238.88,535.027 1238.12,531.344 1238.47,525.961C1239.08,516.39 1244.29,500.936 1252.57,487.58C1266.7,464.246 1284.89,447.016 1289.81,447.484C1292.27,447.717 1292.63,449.858 1292.4,453.447C1291.9,461.223 1286.53,475.458 1275.62,494.884C1261.95,518.863 1249.46,536.032 1241.34,535.261Z" style="fill:rgb(0,38,63);fill-rule:nonzero;"/>
        <path d="M1422.3,523.512C1421.87,519.464 1418.14,519.289 1414.22,523.945C1404.55,535.611 1389.75,548.029 1373.36,555.848C1387.33,529.861 1404.06,503.845 1413.46,488.774C1417.68,482.048 1419.82,475.8 1420.66,469.888C1421.54,463.68 1421.2,459.042 1418.18,453.841C1415.97,450.026 1412.73,449.953 1408.56,454.558C1401.21,463.973 1392.08,480.625 1371.03,510.603C1355.62,532.634 1342.2,547.774 1335.87,546.445C1329.55,545.116 1333.42,533.751 1338.34,523.825C1344.94,510.903 1351.77,499.856 1362.31,485.632C1369.46,475.87 1373.6,467.911 1374.65,460.521C1375.33,455.791 1373.89,450.01 1372.05,445.36C1370.05,440.068 1366.36,439.596 1362.48,443.957C1343.83,465.914 1327.66,493.266 1319.42,510.713C1316.18,517.643 1314.19,524.533 1313.31,530.741C1311.54,543.157 1315.3,555.515 1327.46,558.071C1334.75,559.605 1341.45,558.274 1348.58,553.987L1343.46,563.566C1318.23,570.136 1295.96,584.027 1284.8,607.864C1282.59,612.878 1281.14,617.75 1280.64,621.298C1279.29,630.757 1281.68,640.393 1284.44,647.367C1288.93,658.054 1294.04,659.128 1300.01,657.643C1322.56,652.336 1345.83,608.515 1364.76,572.306C1386.13,566.448 1403.74,558.885 1416.03,542.898C1421.26,536.081 1422.84,528.497 1422.3,523.512ZM1334.4,581.452C1326.29,596.188 1318.39,609.445 1311.73,619.309C1302.86,632.363 1296.53,639.862 1295.08,637.73C1293.03,634.558 1296.45,622.796 1304.51,610.181C1311.26,599.726 1321.34,588.753 1334.4,581.452Z" style="fill:rgb(0,38,63);fill-rule:nonzero;stroke:white;stroke-width:0.9px;"/>
    </g>
    <g transform="matrix(1,0,0,1,-499,-760)">
        <path d="M1802.67,830.055L1802.67,813.865L1814.8,813.865L1814.8,789.62L1837.29,789.62L1837.29,813.865L1851.4,813.865L1851.4,830.055L1837.29,830.055L1837.29,875.994C1837.29,879.556 1837.74,881.776 1838.64,882.653C1839.55,883.531 1842.31,883.969 1846.94,883.969C1847.63,883.969 1848.36,883.956 1849.13,883.929C1849.9,883.903 1850.66,883.863 1851.4,883.81L1851.4,900.798L1840.64,901.196C1829.9,901.569 1822.56,899.708 1818.63,895.613C1816.07,893.008 1814.8,888.994 1814.8,883.571L1814.8,830.055L1802.67,830.055Z" style="fill:rgb(0,38,63);fill-rule:nonzero;"/>
        <path d="M1913.22,810.994C1913.64,810.994 1914,811.007 1914.29,811.034C1914.58,811.06 1915.24,811.1 1916.25,811.153L1916.25,834.442C1914.81,834.282 1913.53,834.176 1912.42,834.123C1911.3,834.07 1910.4,834.043 1909.71,834.043C1900.56,834.043 1894.42,837.02 1891.28,842.975C1889.53,846.325 1888.65,851.483 1888.65,858.448L1888.65,900L1865.76,900L1865.76,813.067L1887.45,813.067L1887.45,828.221C1890.96,822.425 1894.02,818.464 1896.63,816.337C1900.88,812.775 1906.41,810.994 1913.22,810.994Z" style="fill:rgb(0,38,63);fill-rule:nonzero;"/>
        <path d="M1977.5,857.73C1976.06,858.634 1974.61,859.365 1973.15,859.923C1971.69,860.482 1969.68,861 1967.13,861.479L1962.03,862.436C1957.24,863.286 1953.81,864.323 1951.74,865.546C1948.23,867.62 1946.47,870.836 1946.47,875.196C1946.47,879.078 1947.55,881.882 1949.7,883.61C1951.86,885.338 1954.47,886.202 1957.56,886.202C1962.45,886.202 1966.96,884.767 1971.08,881.896C1975.2,879.025 1977.34,873.787 1977.5,866.184L1977.5,857.73ZM1963.7,847.123C1967.9,846.591 1970.9,845.926 1972.71,845.129C1975.96,843.746 1977.58,841.593 1977.58,838.669C1977.58,835.106 1976.34,832.647 1973.87,831.291C1971.4,829.936 1967.77,829.258 1962.98,829.258C1957.61,829.258 1953.81,830.587 1951.58,833.245C1949.98,835.213 1948.92,837.871 1948.39,841.221L1926.45,841.221C1926.93,833.618 1929.06,827.37 1932.83,822.479C1938.84,814.822 1949.16,810.994 1963.78,810.994C1973.3,810.994 1981.75,812.881 1989.14,816.656C1996.53,820.431 2000.23,827.556 2000.23,838.031L2000.23,877.908C2000.23,880.673 2000.28,884.022 2000.39,887.957C2000.55,890.935 2001,892.955 2001.74,894.018C2002.49,895.082 2003.6,895.959 2005.09,896.65L2005.09,900L1980.37,900C1979.68,898.245 1979.2,896.597 1978.93,895.055C1978.67,893.513 1978.45,891.759 1978.29,889.791C1975.16,893.194 1971.54,896.092 1967.45,898.485C1962.56,901.303 1957.03,902.712 1950.86,902.712C1942.99,902.712 1936.49,900.465 1931.36,895.972C1926.23,891.48 1923.66,885.112 1923.66,876.871C1923.66,866.184 1927.78,858.448 1936.03,853.663C1940.54,851.057 1947.19,849.196 1955.96,848.08L1963.7,847.123Z" style="fill:rgb(0,38,63);fill-rule:nonzero;"/>
        <path d="M2074,813.067L2098.41,813.067L2067.06,900L2043.06,900L2011.87,813.067L2037.39,813.067L2055.5,877.19L2074,813.067Z" style="fill:rgb(0,38,63);fill-rule:nonzero;"/>
        <path d="M2145.54,829.497C2140.28,829.497 2136.2,831.145 2133.3,834.442C2130.4,837.738 2128.58,842.204 2127.83,847.84L2163.17,847.84C2162.79,841.832 2160.97,837.273 2157.7,834.163C2154.43,831.052 2150.38,829.497 2145.54,829.497ZM2145.54,810.755C2152.77,810.755 2159.28,812.11 2165.08,814.822C2170.88,817.534 2175.66,821.814 2179.44,827.663C2182.84,832.82 2185.05,838.802 2186.05,845.607C2186.64,849.595 2186.88,855.337 2186.77,862.834L2127.28,862.834C2127.6,871.554 2130.33,877.669 2135.49,881.178C2138.63,883.358 2142.4,884.448 2146.82,884.448C2151.49,884.448 2155.3,883.119 2158.22,880.46C2159.82,879.025 2161.22,877.031 2162.45,874.479L2185.66,874.479C2185.07,879.636 2182.39,884.873 2177.6,890.19C2170.16,898.644 2159.74,902.871 2146.34,902.871C2135.28,902.871 2125.52,899.309 2117.07,892.184C2108.61,885.059 2104.39,873.468 2104.39,857.411C2104.39,842.364 2108.2,830.826 2115.83,822.798C2123.46,814.769 2133.36,810.755 2145.54,810.755Z" style="fill:rgb(0,38,63);fill-rule:nonzero;"/>
        <rect x="2202.56" y="782.442" width="22.73" height="117.558" style="fill:rgb(0,38,63);fill-rule:nonzero;"/>
        <path d="M2327.14,829.497C2321.88,829.497 2317.8,831.145 2314.9,834.442C2312,837.738 2310.18,842.204 2309.44,847.84L2344.77,847.84C2344.39,841.832 2342.57,837.273 2339.3,834.163C2336.03,831.052 2331.98,829.497 2327.14,829.497ZM2327.14,810.755C2334.37,810.755 2340.89,812.11 2346.68,814.822C2352.48,817.534 2357.26,821.814 2361.04,827.663C2364.44,832.82 2366.65,838.802 2367.66,845.607C2368.24,849.595 2368.48,855.337 2368.37,862.834L2308.88,862.834C2309.2,871.554 2311.93,877.669 2317.09,881.178C2320.23,883.358 2324,884.448 2328.42,884.448C2333.1,884.448 2336.9,883.119 2339.82,880.46C2341.42,879.025 2342.83,877.031 2344.05,874.479L2367.26,874.479C2366.67,879.636 2363.99,884.873 2359.2,890.19C2351.76,898.644 2341.34,902.871 2327.94,902.871C2316.88,902.871 2307.12,899.309 2298.67,892.184C2290.22,885.059 2285.99,873.468 2285.99,857.411C2285.99,842.364 2289.8,830.826 2297.43,822.798C2305.06,814.769 2314.97,810.755 2327.14,810.755Z" style="fill:rgb(0,38,63);fill-rule:nonzero;"/>
        <path d="M2375.15,900L2404.82,855.975L2376.43,813.227L2404.26,813.227L2418.78,838.429L2432.97,813.227L2460.01,813.227L2431.46,855.577L2461.13,900L2432.82,900L2417.82,873.92L2402.75,900L2375.15,900Z" style="fill:rgb(0,38,63);fill-rule:nonzero;"/>
        <path d="M2534.42,856.534C2534.42,849.834 2532.89,843.906 2529.84,838.748C2526.78,833.591 2521.82,831.012 2514.96,831.012C2506.72,831.012 2501.06,834.92 2497.97,842.736C2496.38,846.883 2495.58,852.147 2495.58,858.528C2495.58,868.63 2498.27,875.728 2503.64,879.822C2506.83,882.215 2510.6,883.411 2514.96,883.411C2521.29,883.411 2526.12,880.965 2529.44,876.074C2532.76,871.182 2534.42,864.669 2534.42,856.534ZM2521.5,811.153C2531.66,811.153 2540.26,814.902 2547.3,822.399C2554.35,829.896 2557.87,840.902 2557.87,855.417C2557.87,870.73 2554.43,882.401 2547.54,890.429C2540.66,898.458 2531.79,902.472 2520.95,902.472C2514.03,902.472 2508.29,900.744 2503.72,897.288C2501.22,895.374 2498.77,892.583 2496.38,888.914L2496.38,934.215L2473.89,934.215L2473.89,813.067L2495.66,813.067L2495.66,825.908C2498.11,822.133 2500.71,819.155 2503.48,816.975C2508.53,813.094 2514.54,811.153 2521.5,811.153Z" style="fill:rgb(0,38,63);fill-rule:nonzero;"/>
        <path d="M2608.6,829.497C2603.33,829.497 2599.25,831.145 2596.35,834.442C2593.45,837.738 2591.63,842.204 2590.89,847.84L2626.22,847.84C2625.85,841.832 2624.03,837.273 2620.76,834.163C2617.49,831.052 2613.43,829.497 2608.6,829.497ZM2608.6,810.755C2615.83,810.755 2622.34,812.11 2628.14,814.822C2633.93,817.534 2638.72,821.814 2642.49,827.663C2645.89,832.82 2648.1,838.802 2649.11,845.607C2649.7,849.595 2649.93,855.337 2649.83,862.834L2590.33,862.834C2590.65,871.554 2593.39,877.669 2598.55,881.178C2601.68,883.358 2605.46,884.448 2609.87,884.448C2614.55,884.448 2618.35,883.119 2621.28,880.46C2622.87,879.025 2624.28,877.031 2625.5,874.479L2648.71,874.479C2648.13,879.636 2645.44,884.873 2640.66,890.19C2633.21,898.644 2622.79,902.871 2609.39,902.871C2598.33,902.871 2588.58,899.309 2580.12,892.184C2571.67,885.059 2567.44,873.468 2567.44,857.411C2567.44,842.364 2571.26,830.826 2578.89,822.798C2586.52,814.769 2596.42,810.755 2608.6,810.755Z" style="fill:rgb(0,38,63);fill-rule:nonzero;"/>
        <path d="M2712.36,810.994C2712.78,810.994 2713.14,811.007 2713.43,811.034C2713.72,811.06 2714.38,811.1 2715.39,811.153L2715.39,834.442C2713.95,834.282 2712.68,834.176 2711.56,834.123C2710.44,834.07 2709.54,834.043 2708.85,834.043C2699.7,834.043 2693.56,837.02 2690.42,842.975C2688.67,846.325 2687.79,851.483 2687.79,858.448L2687.79,900L2664.9,900L2664.9,813.067L2686.6,813.067L2686.6,828.221C2690.1,822.425 2693.16,818.464 2695.77,816.337C2700.02,812.775 2705.55,810.994 2712.36,810.994Z" style="fill:rgb(0,38,63);fill-rule:nonzero;"/>
        <path d="M2719.77,830.055L2719.77,813.865L2731.9,813.865L2731.9,789.62L2754.39,789.62L2754.39,813.865L2768.5,813.865L2768.5,830.055L2754.39,830.055L2754.39,875.994C2754.39,879.556 2754.84,881.776 2755.74,882.653C2756.65,883.531 2759.41,883.969 2764.04,883.969C2764.73,883.969 2765.46,883.956 2766.23,883.929C2767,883.903 2767.76,883.863 2768.5,883.81L2768.5,900.798L2757.74,901.196C2747,901.569 2739.66,899.708 2735.72,895.613C2733.17,893.008 2731.9,888.994 2731.9,883.571L2731.9,830.055L2719.77,830.055Z" style="fill:rgb(0,38,63);fill-rule:nonzero;"/>
        <path d="M2800.8,872.245C2801.28,876.286 2802.32,879.157 2803.91,880.859C2806.73,883.89 2811.94,885.405 2819.55,885.405C2824.01,885.405 2827.56,884.74 2830.19,883.411C2832.83,882.082 2834.14,880.088 2834.14,877.429C2834.14,874.877 2833.08,872.937 2830.95,871.607C2828.82,870.278 2820.93,867.992 2807.26,864.748C2797.43,862.303 2790.49,859.245 2786.45,855.577C2782.41,851.961 2780.39,846.751 2780.39,839.945C2780.39,831.916 2783.54,825.017 2789.84,819.248C2796.14,813.48 2805,810.595 2816.44,810.595C2827.28,810.595 2836.12,812.762 2842.95,817.095C2849.79,821.428 2853.71,828.912 2854.72,839.546L2831.99,839.546C2831.67,836.622 2830.85,834.309 2829.51,832.607C2827.02,829.524 2822.76,827.982 2816.76,827.982C2811.81,827.982 2808.29,828.753 2806.19,830.294C2804.09,831.836 2803.04,833.644 2803.04,835.718C2803.04,838.323 2804.15,840.211 2806.39,841.38C2808.62,842.603 2816.51,844.703 2830.07,847.681C2839.11,849.808 2845.89,853.025 2850.41,857.331C2854.88,861.691 2857.11,867.141 2857.11,873.681C2857.11,882.294 2853.91,889.326 2847.5,894.776C2841.09,900.226 2831.19,902.951 2817.79,902.951C2804.13,902.951 2794.04,900.066 2787.53,894.298C2781.01,888.529 2777.76,881.178 2777.76,872.245L2800.8,872.245Z" style="fill:rgb(0,38,63);fill-rule:nonzero;"/>
        <path d="M1852.6,976.405L1875.65,976.405L1888.89,1039.01L1902.45,976.405L1926.13,976.405L1900.93,1063.34L1877.56,1063.34L1863.93,1000.01L1850.13,1063.34L1826.52,1063.34L1802.12,976.405L1826.52,976.405L1840.08,1038.77L1852.6,976.405Z" style="fill:rgb(0,38,63);fill-rule:nonzero;"/>
        <path d="M1977.66,1047.31C1984.3,1047.31 1989.41,1044.94 1992.97,1040.21C1996.53,1035.48 1998.31,1028.75 1998.31,1020.03C1998.31,1011.31 1996.53,1004.6 1992.97,999.893C1989.41,995.187 1984.3,992.834 1977.66,992.834C1971.01,992.834 1965.89,995.187 1962.3,999.893C1958.72,1004.6 1956.92,1011.31 1956.92,1020.03C1956.92,1028.75 1958.72,1035.48 1962.3,1040.21C1965.89,1044.94 1971.01,1047.31 1977.66,1047.31ZM2022.16,1020.03C2022.16,1032.79 2018.49,1043.7 2011.15,1052.77C2003.82,1061.84 1992.68,1066.37 1977.74,1066.37C1962.8,1066.37 1951.66,1061.84 1944.32,1052.77C1936.98,1043.7 1933.31,1032.79 1933.31,1020.03C1933.31,1007.48 1936.98,996.609 1944.32,987.411C1951.66,978.213 1962.8,973.613 1977.74,973.613C1992.68,973.613 2003.82,978.213 2011.15,987.411C2018.49,996.609 2022.16,1007.48 2022.16,1020.03Z" style="fill:rgb(0,38,63);fill-rule:nonzero;"/>
        <path d="M2085.64,974.331C2086.07,974.331 2086.43,974.345 2086.72,974.371C2087.01,974.398 2087.66,974.438 2088.68,974.491L2088.68,997.779C2087.24,997.62 2085.96,997.513 2084.85,997.46C2083.73,997.407 2082.83,997.38 2082.14,997.38C2072.99,997.38 2066.85,1000.36 2063.71,1006.31C2061.96,1009.66 2061.08,1014.82 2061.08,1021.78L2061.08,1063.34L2038.19,1063.34L2038.19,976.405L2059.88,976.405L2059.88,991.558C2063.39,985.763 2066.45,981.802 2069.05,979.675C2073.31,976.112 2078.84,974.331 2085.64,974.331Z" style="fill:rgb(0,38,63);fill-rule:nonzero;"/>
        <rect x="2102.47" y="945.779" width="22.73" height="117.558" style="fill:rgb(0,38,63);fill-rule:nonzero;"/>
        <path d="M2179.44,974.331C2184.7,974.331 2189.38,975.488 2193.47,977.801C2197.57,980.113 2200.89,983.317 2203.44,987.411L2203.44,945.939L2226.49,945.939L2226.49,1063.34L2204.4,1063.34L2204.4,1051.29C2201.16,1056.45 2197.46,1060.2 2193.31,1062.54C2189.17,1064.88 2184.01,1066.05 2177.84,1066.05C2167.68,1066.05 2159.14,1061.94 2152.2,1053.73C2145.26,1045.51 2141.79,1034.97 2141.79,1022.1C2141.79,1007.27 2145.21,995.599 2152.04,987.092C2158.87,978.585 2168,974.331 2179.44,974.331ZM2184.38,1046.91C2190.81,1046.91 2195.71,1044.52 2199.05,1039.73C2202.41,1034.94 2204.08,1028.75 2204.08,1021.15C2204.08,1010.51 2201.39,1002.91 2196.03,998.337C2192.73,995.573 2188.9,994.19 2184.54,994.19C2177.89,994.19 2173.01,996.702 2169.91,1001.73C2166.79,1006.75 2165.24,1012.99 2165.24,1020.43C2165.24,1028.46 2166.82,1034.88 2169.99,1039.69C2173.15,1044.5 2177.95,1046.91 2184.38,1046.91Z" style="fill:rgb(0,38,63);fill-rule:nonzero;"/>
        <path d="M2288.14,976.405L2311.19,976.405L2324.43,1039.01L2337.99,976.405L2361.68,976.405L2336.47,1063.34L2313.1,1063.34L2299.47,1000.01L2285.67,1063.34L2262.06,1063.34L2237.66,976.405L2262.06,976.405L2275.62,1038.77L2288.14,976.405Z" style="fill:rgb(0,38,63);fill-rule:nonzero;"/>
        <path d="M2397.56,966.037L2374.51,966.037L2374.51,945.061L2397.56,945.061L2397.56,966.037ZM2374.51,976.405L2397.56,976.405L2397.56,1063.34L2374.51,1063.34L2374.51,976.405Z" style="fill:rgb(0,38,63);fill-rule:nonzero;"/>
        <path d="M2451.64,974.331C2456.9,974.331 2461.58,975.488 2465.68,977.801C2469.77,980.113 2473.09,983.317 2475.64,987.411L2475.64,945.939L2498.69,945.939L2498.69,1063.34L2476.6,1063.34L2476.6,1051.29C2473.36,1056.45 2469.66,1060.2 2465.51,1062.54C2461.37,1064.88 2456.21,1066.05 2450.04,1066.05C2439.89,1066.05 2431.34,1061.94 2424.4,1053.73C2417.46,1045.51 2413.99,1034.97 2413.99,1022.1C2413.99,1007.27 2417.41,995.599 2424.24,987.092C2431.08,978.585 2440.21,974.331 2451.64,974.331ZM2456.58,1046.91C2463.02,1046.91 2467.91,1044.52 2471.26,1039.73C2474.61,1034.94 2476.28,1028.75 2476.28,1021.15C2476.28,1010.51 2473.6,1002.91 2468.23,998.337C2464.93,995.573 2461.1,994.19 2456.74,994.19C2450.1,994.19 2445.22,996.702 2442.11,1001.73C2439,1006.75 2437.44,1012.99 2437.44,1020.43C2437.44,1028.46 2439.02,1034.88 2442.19,1039.69C2445.35,1044.5 2450.15,1046.91 2456.58,1046.91Z" style="fill:rgb(0,38,63);fill-rule:nonzero;"/>
        <path d="M2553.64,992.834C2548.38,992.834 2544.3,994.483 2541.4,997.779C2538.5,1001.08 2536.68,1005.54 2535.94,1011.18L2571.27,1011.18C2570.9,1005.17 2569.08,1000.61 2565.81,997.5C2562.54,994.39 2558.48,992.834 2553.64,992.834ZM2553.64,974.092C2560.88,974.092 2567.39,975.448 2573.18,978.16C2578.98,980.871 2583.76,985.151 2587.54,991C2590.94,996.157 2593.15,1002.14 2594.16,1008.95C2594.74,1012.93 2594.98,1018.68 2594.88,1026.17L2535.38,1026.17C2535.7,1034.89 2538.44,1041.01 2543.6,1044.52C2546.73,1046.69 2550.51,1047.79 2554.92,1047.79C2559.6,1047.79 2563.4,1046.46 2566.33,1043.8C2567.92,1042.36 2569.33,1040.37 2570.55,1037.82L2593.76,1037.82C2593.18,1042.97 2590.49,1048.21 2585.71,1053.53C2578.26,1061.98 2567.84,1066.21 2554.44,1066.21C2543.38,1066.21 2533.63,1062.65 2525.17,1055.52C2516.72,1048.4 2512.49,1036.81 2512.49,1020.75C2512.49,1005.7 2516.31,994.164 2523.94,986.135C2531.57,978.106 2541.47,974.092 2553.64,974.092Z" style="fill:rgb(0,38,63);fill-rule:nonzero;"/>
    </g>
</svg>
